<svg width="24" height="25" viewBox="0 0 24 25" fill="none" xmlns="http://www.w3.org/2000/svg">
<path fill-rule="evenodd" clip-rule="evenodd" d="M11 4.75391C7.13401 4.75391 4 7.88791 4 11.7539C4 15.6199 7.13401 18.7539 11 18.7539C14.866 18.7539 18 15.6199 18 11.7539C18 7.88791 14.866 4.75391 11 4.75391ZM2 11.7539C2 6.78334 6.02944 2.75391 11 2.75391C15.9706 2.75391 20 6.78334 20 11.7539C20 16.7245 15.9706 20.7539 11 20.7539C6.02944 20.7539 2 16.7245 2 11.7539Z" fill="#363636"/>
<path fill-rule="evenodd" clip-rule="evenodd" d="M15.9429 16.6967C16.3334 16.3062 16.9666 16.3062 17.3571 16.6967L21.7071 21.0467C22.0976 21.4372 22.0976 22.0704 21.7071 22.4609C21.3166 22.8514 20.6834 22.8514 20.2929 22.4609L15.9429 18.1109C15.5524 17.7204 15.5524 17.0872 15.9429 16.6967Z" fill="#363636"/>
</svg>
