<svg width="20" height="20" viewBox="0 0 20 20" fill="none" xmlns="http://www.w3.org/2000/svg">
<path fill-rule="evenodd" clip-rule="evenodd" d="M4.14773 3.5C3.79 3.5 3.5 3.79 3.5 4.14773V9.32955C3.5 9.68728 3.79 9.97727 4.14773 9.97727H9.32955C9.68728 9.97727 9.97727 9.68728 9.97727 9.32955V4.14773C9.97727 3.79 9.68728 3.5 9.32955 3.5H4.14773ZM4.79545 8.68182V4.79545H8.68182V8.68182H4.79545ZM11.9205 3.5C11.5627 3.5 11.2727 3.79 11.2727 4.14773V9.32955C11.2727 9.68728 11.5627 9.97727 11.9205 9.97727H17.1023C17.46 9.97727 17.75 9.68728 17.75 9.32955V4.14773C17.75 3.79 17.46 3.5 17.1023 3.5H11.9205ZM12.5682 8.68182V4.79545H16.4545V8.68182H12.5682ZM3.5 11.9205C3.5 11.5627 3.79 11.2727 4.14773 11.2727H9.32955C9.68728 11.2727 9.97727 11.5627 9.97727 11.9205V17.1023C9.97727 17.46 9.68728 17.75 9.32955 17.75H4.14773C3.79 17.75 3.5 17.46 3.5 17.1023V11.9205ZM4.79545 12.5682V16.4545H8.68182V12.5682H4.79545ZM11.9205 11.2727C11.5627 11.2727 11.2727 11.5627 11.2727 11.9205V17.1023C11.2727 17.46 11.5627 17.75 11.9205 17.75H17.1023C17.46 17.75 17.75 17.46 17.75 17.1023V11.9205C17.75 11.5627 17.46 11.2727 17.1023 11.2727H11.9205ZM12.5682 16.4545V12.5682H16.4545V16.4545H12.5682Z" fill="white"/>
</svg>
